HIERARCHY
ROOT Hips
{
 OFFSET 0.000000 0.000000 0.000000
 CHANNELS 6 Xposition Yposition Zposition Yrotation Xrotation Zrotation
 JOINT Chest
 {
  OFFSET 0.000000 9.585900 0.002600
  CHANNELS 3 Yrotation Xrotation Zrotation
  JOINT Chest2
  {
   OFFSET 0.000000 9.601200 -0.005300
   CHANNELS 3 Yrotation Xrotation Zrotation
   JOINT Chest3
   {
    OFFSET 0.000000 9.561800 0.000000
    CHANNELS 3 Yrotation Xrotation Zrotation
    JOINT Chest4
    {
     OFFSET 0.000000 9.552100 0.000000
     CHANNELS 3 Yrotation Xrotation Zrotation
     JOINT Neck
     {
      OFFSET 0.000000 14.453000 0.000000
      CHANNELS 3 Yrotation Xrotation Zrotation
      JOINT Head
      {
       OFFSET 0.000000 8.936500 -0.011300
       CHANNELS 3 Yrotation Xrotation Zrotation
       End Site
       {
        OFFSET 0.000000 17.073600 -0.006000
       }
      }
     }
     JOINT RightCollar
     {
      OFFSET -2.921100 9.558500 0.000000
      CHANNELS 3 Yrotation Xrotation Zrotation
      JOINT RightShoulder
      {
       OFFSET -13.519700 0.000000 0.000000
       CHANNELS 3 Yrotation Xrotation Zrotation
       JOINT RightElbow
       {
        OFFSET 0.000000 -29.696600 0.000000
        CHANNELS 3 Yrotation Xrotation Zrotation
        JOINT RightWrist
        {
         OFFSET 0.000000 -24.004700 0.000000
         CHANNELS 3 Yrotation Xrotation Zrotation
         End Site
         {
          OFFSET 0.000000 -17.728500 0.000000
         }
        }
       }
      }
     }
     JOINT LeftCollar
     {
      OFFSET 2.921100 9.558500 0.000000
      CHANNELS 3 Yrotation Xrotation Zrotation
      JOINT LeftShoulder
      {
       OFFSET 13.519700 0.000000 0.000000
       CHANNELS 3 Yrotation Xrotation Zrotation
       JOINT LeftElbow
       {
        OFFSET 0.000000 -29.696600 0.000000
        CHANNELS 3 Yrotation Xrotation Zrotation
        JOINT LeftWrist
        {
         OFFSET 0.000000 -24.004700 0.000000
         CHANNELS 3 Yrotation Xrotation Zrotation
         End Site
         {
          OFFSET 0.000000 -17.728500 0.000000
         }
        }
       }
      }
     }
    }
   }
  }
 }
 JOINT RightHip
 {
  OFFSET -7.771700 -0.012900 -0.001300
  CHANNELS 3 Yrotation Xrotation Zrotation
  JOINT RightKnee
  {
   OFFSET 0.000000 -40.869800 0.001200
   CHANNELS 3 Yrotation Xrotation Zrotation
   JOINT RightAnkle
   {
    OFFSET 0.000000 -39.717900 0.002100
    CHANNELS 3 Yrotation Xrotation Zrotation
    JOINT RightToe
    {
     OFFSET 0.000000 -4.965400 11.033500
     CHANNELS 3 Yrotation Xrotation Zrotation
     End Site
     {
      OFFSET 0.000000 -1.423100 5.872300
     }
    }
   }
  }
 }
 JOINT LeftHip
 {
  OFFSET 7.771700 -0.012900 -0.001300
  CHANNELS 3 Yrotation Xrotation Zrotation
  JOINT LeftKnee
  {
   OFFSET 0.000000 -40.869800 0.001200
   CHANNELS 3 Yrotation Xrotation Zrotation
   JOINT LeftAnkle
   {
    OFFSET 0.000000 -39.717900 0.002100
    CHANNELS 3 Yrotation Xrotation Zrotation
    JOINT LeftToe
    {
     OFFSET 0.000000 -4.965400 11.033500
     CHANNELS 3 Yrotation Xrotation Zrotation
     End Site
     {
      OFFSET 0.000000 -1.423100 5.872300
     }
    }
   }
  }
 }
}
MOTION
Frames: 15
Frame Time: 0.008333
0.000000 85.388000 0.000000 0.000000 -5.767877 0.000000 0.000000 11.653817 0.000000 0.000000 -5.885947 0.000000 0.000000 -0.000000 0.000000 0.000000 -0.000000 0.000000 0.000000 12.528835 0.000000 0.000000 0.711642 0.000000 0.000000 -0.000000 0.000000 0.000000 0.000000 -90.000000 0.000000 -2.309062 0.000000 0.000000 2.309062 0.000000 0.000000 -0.000000 0.000000 0.000000 -0.000000 90.000000 0.000000 -2.309062 0.000000 0.000000 2.309062 0.000000 0.000000 8.520406 0.000000 0.000000 1.905762 0.000000 -0.000000 -4.658285 0.000000 0.000000 -0.000000 0.000000 0.000000 8.520406 0.000000 0.000000 1.905762 0.000000 -0.000000 -4.658285 0.000000 0.000000 -0.000000 0.000000
-33.539500 61.741286 22.322180 154.313713 -5.057830 -0.845211 -0.071615 9.732493 1.361432 0.072425 0.528588 0.179695 -0.020348 1.095499 0.209309 0.457424 9.102083 2.217582 -1.393005 9.619273 -1.500867 -1.163225 -15.472387 -1.270300 2.905067 -3.333153 -12.841499 15.828879 -3.368929 -18.907314 47.494903 -51.341577 -13.047277 1.198110 -14.027372 -61.911081 -8.671107 -15.351043 4.508050 -27.937933 -2.113073 13.806625 -83.189505 -33.372178 39.555593 -3.497306 -10.831263 39.890841 -9.732841 -61.529262 14.606580 -18.533840 71.221654 -14.005766 1.112209 -6.553036 -5.325668 0.655163 -0.646066 0.311640 21.535920 -61.176320 -1.417116 32.653632 70.521226 31.009847 -16.455244 -17.794240 1.918830 -0.021261 1.300727 0.127992
-33.590725 61.762293 22.296815 154.301798 -5.016828 -0.808700 -0.091481 9.725253 1.302889 0.000281 0.613756 0.134525 0.012704 1.047277 0.238269 0.400783 9.109189 2.217566 -1.324821 9.661004 -1.472031 -1.072049 -15.477549 -1.263375 2.925272 -3.370666 -12.926509 15.990663 -3.350686 -18.809535 47.299618 -51.190633 -12.974714 1.195334 -14.258146 -62.007372 -8.792429 -15.416553 4.525727 -28.232969 -2.015158 13.632037 -82.766146 -33.117821 39.601975 -3.321981 -10.875053 40.380874 -9.679523 -61.562141 14.543684 -18.488202 71.207744 -13.993715 1.040867 -6.555876 -5.327159 0.727242 -0.648618 0.344604 21.527250 -61.094639 -1.465437 32.614784 70.432305 30.839974 -16.379754 -17.938895 1.976355 -0.077997 1.445638 0.099699
-33.632746 61.787127 22.280254 154.321086 -4.942374 -0.880551 -0.173765 9.740257 1.320836 -0.004503 0.615025 0.135071 0.020952 1.031963 0.247362 0.342914 9.117829 2.217553 -1.242690 9.665005 -1.447492 -0.999798 -15.509279 -1.271343 2.942418 -3.399879 -12.996179 16.152847 -3.345499 -18.754398 47.107965 -51.069559 -12.892682 1.233205 -14.460931 -62.073170 -8.908570 -15.470282 4.542074 -28.479530 -1.852039 13.470256 -82.368635 -32.933406 39.712787 -3.186245 -10.891535 40.815978 -9.872300 -61.602392 14.725311 -18.453401 71.181769 -13.997818 0.997826 -6.504372 -5.321199 0.771514 -0.698483 0.366060 21.380110 -61.142886 -1.356292 32.598305 70.400688 30.730647 -16.376274 -17.962312 2.009336 -0.051288 1.471120 0.105743
-33.688513 61.814789 22.252347 154.311475 -4.885648 -0.857902 -0.251043 9.774685 1.247609 0.007854 0.598451 0.143708 0.014534 1.033891 0.248248 0.286135 9.126686 2.219108 -1.161210 9.653530 -1.427980 -0.923338 -15.533218 -1.280998 2.954412 -3.421766 -13.052117 16.310715 -3.350879 -18.730172 46.918040 -50.977011 -12.802470 1.281175 -14.644680 -62.134110 -9.014583 -15.514581 4.560619 -28.653161 -1.640164 13.317309 -82.027313 -32.818345 39.875768 -3.090406 -10.900139 41.173895 -9.853929 -61.648214 14.698271 -18.438653 71.165887 -14.018948 0.929810 -6.486573 -5.320565 0.844927 -0.723448 0.400407 21.290630 -61.087866 -1.302301 32.498717 70.332176 30.479629 -16.485875 -18.056847 2.083098 -0.095949 1.577890 0.088495
-33.742136 61.843626 22.224629 154.346463 -4.826485 -0.841873 -0.362234 9.789497 1.191371 0.004290 0.599466 0.144257 0.008464 1.035552 0.249231 0.232403 9.134308 2.221967 -1.081177 9.627133 -1.415384 -0.841289 -15.528433 -1.277272 2.957898 -3.434974 -13.097557 16.463409 -3.366196 -18.725370 46.729103 -50.907576 -12.709708 1.253227 -14.876855 -62.254899 -9.098643 -15.547451 4.583216 -28.733374 -1.408784 13.168754 -81.776106 -32.767980 40.069036 -3.038219 -10.913936 41.462053 -9.888028 -61.694012 14.680968 -18.435939 71.150270 -14.051518 0.814936 -6.444304 -5.336353 0.964230 -0.779533 0.455860 21.159545 -61.049679 -1.236306 32.350353 70.294804 30.179160 -16.605317 -18.176965 2.160901 -0.111316 1.709435 0.089358
-33.778770 61.872389 22.200097 154.351230 -4.790649 -0.898205 -0.434500 9.827312 1.216248 0.000909 0.600135 0.144891 0.002670 1.036656 0.250243 0.181410 9.139059 2.226057 -1.002618 9.587610 -1.411251 -0.757483 -15.538647 -1.282355 2.953029 -3.438651 -13.136489 16.605092 -3.385931 -18.730951 46.540682 -50.858902 -12.615829 1.264206 -15.084992 -62.333584 -9.153168 -15.567268 4.606924 -28.699497 -1.193616 13.025057 -81.647119 -32.773586 40.270854 -3.033184 -10.934056 41.710439 -10.083584 -61.683123 14.867188 -18.399681 71.123372 -14.076857 0.784104 -6.418623 -5.331975 1.007811 -0.810938 0.478536 20.979845 -61.054856 -1.066658 32.230230 70.288919 29.966064 -16.673609 -18.176427 2.196417 -0.064184 1.708817 0.100394
-33.808253 61.898526 22.184152 154.347982 -4.725360 -0.980488 -0.499281 9.835388 1.273219 -0.002321 0.600338 0.145608 -0.002886 1.037088 0.251429 0.132671 9.140222 2.232335 -0.924481 9.537133 -1.416103 -0.676654 -15.564292 -1.295045 2.945282 -3.433826 -13.169397 16.726082 -3.404558 -18.740250 46.358069 -50.828729 -12.522134 1.295248 -15.271363 -62.393037 -9.175651 -15.576351 4.628576 -28.541728 -1.021280 12.884624 -81.655208 -32.817111 40.466139 -3.059300 -10.955843 41.950168 -10.295273 -61.705765 15.085708 -18.363874 71.097420 -14.074089 0.769852 -6.369307 -5.330663 1.025044 -0.862337 0.486338 20.834824 -61.123034 -0.920170 32.128076 70.301510 29.811715 -16.698947 -18.137534 2.214319 0.008723 1.664614 0.108410
-33.830907 61.920807 22.173121 154.342867 -4.651795 -1.074729 -0.564501 9.834913 1.346220 -0.005275 0.600076 0.146407 -0.008035 1.036720 0.252875 0.087787 9.137599 2.241591 -0.818317 9.480207 -1.435906 -0.609578 -15.652879 -1.315721 2.937737 -3.421974 -13.196053 16.817319 -3.421681 -18.747491 46.192479 -50.813763 -12.434006 1.324659 -15.442773 -62.451101 -9.166304 -15.576329 4.645734 -28.273171 -0.903199 12.744218 -81.789600 -32.879067 40.642068 -3.099800 -10.974976 42.200090 -10.541246 -61.730748 15.338947 -18.327543 71.068150 -14.070440 0.790183 -6.326652 -5.322903 1.006926 -0.908145 0.474869 20.756861 -61.228085 -0.834757 32.058258 70.329276 29.743770 -16.696299 -18.060185 2.222792 0.064411 1.577569 0.116609
-33.853331 61.937848 22.165394 154.349274 -4.563069 -1.143478 -0.647484 9.818477 1.397067 -0.008145 0.599550 0.147437 -0.013056 1.035812 0.254734 0.044305 9.132068 2.255074 -0.714310 9.424441 -1.465224 -0.550665 -15.737912 -1.344353 2.934822 -3.403517 -13.220280 16.868581 -3.436882 -18.752470 46.049055 -50.815865 -12.351153 1.354836 -15.599289 -62.507907 -9.123015 -15.568997 4.651247 -27.925874 -0.837131 12.605029 -82.027726 -32.943757 40.795553 -3.145152 -10.993019 42.471909 -10.737755 -61.782293 15.525871 -18.315227 71.044601 -14.078541 0.824997 -6.300974 -5.312917 0.994297 -0.928590 0.469318 20.812749 -61.359226 -0.893824 32.038521 70.357589 29.786227 -16.776916 -17.932479 2.242489 0.056793 1.447474 0.103028
-33.872534 61.949007 22.161441 154.360222 -4.465767 -1.207570 -0.736836 9.792667 1.447591 -0.011139 0.599021 0.148827 -0.018155 1.034882 0.257102 0.000174 9.125773 2.273259 -0.696612 9.353009 -1.476482 -0.410485 -15.761292 -1.409569 2.940568 -3.378436 -13.245432 16.877489 -3.451468 -18.757454 45.928554 -50.836833 -12.272513 1.386933 -15.743156 -62.563658 -9.044683 -15.556655 4.638476 -27.545563 -0.808502 12.472722 -82.339325 -33.002322 40.939364 -3.190373 -11.012158 42.767744 -10.912762 -61.852306 15.695618 -18.292429 71.029974 -14.064288 0.825725 -6.281700 -5.300530 0.993172 -0.950114 0.455635 20.965040 -61.514087 -1.052269 32.024636 70.397193 29.882673 -16.830619 -17.783620 2.263868 0.028378 1.296278 0.078173
-33.879189 61.954554 22.159091 154.343862 -4.397076 -1.314908 -0.792562 9.794945 1.545611 -0.014043 0.598634 0.150529 -0.023156 1.034212 0.259898 -0.042498 9.120036 2.295164 -0.594336 9.292594 -1.518705 -0.355632 -15.856999 -1.444736 2.952514 -3.347464 -13.270414 16.851578 -3.469399 -18.762441 45.837624 -50.874937 -12.202510 1.418435 -15.870186 -62.620267 -8.933370 -15.540351 4.606954 -27.183657 -0.795342 12.352838 -82.678583 -33.055089 41.084404 -3.236086 -11.034699 43.086677 -11.133765 -61.888307 15.949851 -18.277417 71.016417 -14.053950 0.861914 -6.242985 -5.288392 0.944706 -0.992403 0.435621 21.126881 -61.671870 -1.187030 32.070106 70.453102 30.070259 -16.701934 -17.667273 2.256038 0.074153 1.151080 0.069781
-33.876556 61.954693 22.152705 154.222354 -4.380787 -1.433892 -0.740222 9.846310 1.662567 -0.016758 0.598430 0.152355 -0.027950 1.033863 0.262992 -0.082844 9.115208 2.319078 -0.494007 9.231667 -1.562278 -0.309373 -15.960994 -1.473833 2.967133 -3.311275 -13.293631 16.800022 -3.490883 -18.765296 45.779546 -50.928075 -12.148725 1.449844 -15.974426 -62.680074 -8.795844 -15.520744 4.559437 -26.879120 -0.777227 12.250163 -82.991653 -33.108674 41.230992 -3.278473 -11.070219 43.428204 -11.257158 -61.857070 16.190115 -18.171435 70.998529 -13.934178 0.999284 -6.286574 -5.253268 0.817406 -0.936708 0.373474 21.394318 -61.799676 -1.312884 32.322261 70.503178 30.502843 -16.575288 -17.545199 2.240572 0.095065 0.968840 0.051578
-33.885788 61.948306 22.147765 154.196091 -4.326330 -1.486676 -0.796701 9.859426 1.704904 0.027763 0.566308 0.152642 -0.079314 1.065611 0.268155 -0.119326 9.111056 2.343351 -0.429950 9.161598 -1.589033 -0.239582 -16.046111 -1.512553 2.979907 -3.268563 -13.312071 16.734686 -3.513985 -18.767656 45.746371 -50.992226 -12.114986 1.481842 -16.058022 -62.744472 -8.646848 -15.497494 4.500570 -26.647591 -0.740442 12.167523 -83.241013 -33.168021 41.376222 -3.312037 -11.120656 43.787557 -11.338315 -61.891495 16.293000 -18.128755 70.992088 -13.875781 1.032610 -6.316032 -5.239419 0.790574 -0.906827 0.350575 21.764435 -61.937382 -1.644168 32.495263 70.548457 30.884650 -16.628953 -17.432187 2.263524 0.032235 0.826240 0.017004
-33.895368 61.936788 22.142938 154.156966 -4.272276 -1.530056 -0.839628 9.870984 1.737699 0.001902 0.582641 0.155660 -0.059203 1.049340 0.269976 -0.149790 9.107489 2.368140 -0.374950 9.087488 -1.610651 -0.182217 -16.137168 -1.544501 2.987414 -3.219143 -13.323421 16.660108 -3.536626 -18.774096 45.739746 -51.064034 -12.103223 1.512439 -16.128788 -62.814342 -8.498916 -15.468916 4.435700 -26.489493 -0.682274 12.101313 -83.415658 -33.226643 41.520295 -3.334529 -11.179829 44.162625 -11.388228 -61.932502 16.374572 -18.145281 70.984580 -13.866554 1.081449 -6.350456 -5.238623 0.771143 -0.869100 0.337120 22.182776 -62.071562 -2.011611 32.674235 70.595241 31.284640 -16.711680 -17.338562 2.292196 -0.048708 0.702372 -0.021673
